<svg xmlns="http://www.w3.org/2000/svg" width="12" height="10" viewBox="0 0 12 10">
  <path id="Path_633" data-name="Path 633" d="M170.656-29.94h8.03l-2.524-2.538a.66.66,0,0,1-.192-.468.659.659,0,0,1,.192-.467l.393-.394a.65.65,0,0,1,.464-.192.65.65,0,0,1,.464.192l4.327,4.341A.653.653,0,0,1,182-29a.653.653,0,0,1-.191.467l-4.327,4.341a.65.65,0,0,1-.464.192.651.651,0,0,1-.464-.192l-.393-.394a.653.653,0,0,1-.192-.465.634.634,0,0,1,.192-.456l2.553-2.552h-8.048a.681.681,0,0,1-.666-.675v-.558a.668.668,0,0,1,.674-.651Z" transform="translate(-170 34)" fill="#fff" fill-rule="evenodd"/>
</svg>
