<?xml version="1.0" encoding="UTF-8"?><svg id="uuid-04c25f44-56f0-4ed0-b7d6-0409ae8422db" xmlns="http://www.w3.org/2000/svg" width="180.62mm" height="154.46mm" viewBox="0 0 512 437.85"><path d="M0,148.75v-5.8C0,73.05,50.52,13.43,119.4,1.95c44.7-7.59,92,7.27,124.6,39.92l12,11.98,11.1-11.98C300.6,9.22,347-5.64,392.6,1.95c68.9,11.48,119.4,71.1,119.4,141v5.8c0,41.5-17.2,81.2-47.6,109.5l-180.7,168.7c-7.5,7-17.4,10.9-27.7,10.9s-20.2-3.9-27.7-10.9L47.59,258.25C17.23,229.95,0,190.25,0,148.75h0Z" fill="#81c448"/></svg>