<?xml version="1.0" encoding="UTF-8" ?><svg xmlns="http://www.w3.org/2000/svg" viewBox="0 0 100 100"><defs><style>.cls-1{fill:#24b964;}.cls-2,.cls-3{fill:none;stroke:#3a4147;stroke-miterlimit:10;}.cls-2{stroke-width:6.31px;}.cls-3{stroke-width:5.26px;}</style></defs><g id="Tekst"><path class="cls-1" d="M81.11,46.53a11.53,11.53,0,0,0,2-7.37c-.36-4.58-3.56-8.4-8.15-10.49A15.33,15.33,0,0,0,57.2,8.09a10.72,10.72,0,0,0-21.12,2.64c0,.34,0,.67.05,1a14.25,14.25,0,0,0-12,20,15.56,15.56,0,0,0-2.39,1.25A15.21,15.21,0,0,0,16.71,53,19.07,19.07,0,0,0,47.87,74.45c.11.12.21.25.33.37,8.86,8.86,22.94,9.16,31.44.66C87.38,67.73,87.8,55.37,81.11,46.53Z"/><line class="cls-2" x1="49.8" y1="32.43" x2="49.8" y2="100"/><line class="cls-3" x1="42.44" y1="26.85" x2="50.36" y2="34.76"/><line class="cls-3" x1="57.16" y1="26.85" x2="49.24" y2="34.76"/><line class="cls-3" x1="66.06" y1="57.27" x2="49.8" y2="70.94"/><line class="cls-3" x1="36.62" y1="43.07" x2="49.24" y2="54.41"/></g></svg>